# xmcd
#
# Track frame offsets:
#	150
#	17318
#	36635
#	59668
#	79026
#	95380
#	113680
#	133852
#	150702
#	173587
#	191558
#	209741
#	227523
#	244195
#	261733
#	277518
#	293721
#	310766
#	330686
#
# Disc length: 4629 seconds
# Revision: 0
# Processed by: cddbd v1.5.2PL0 Copyright (c) Steve Scherf et al.
# Submitted via: dBpowerAMP V12.0
#
DISCID=0c121313
DTITLE=Various Artist - Eurodance forever 12
DYEAR=1998
DGENRE=Eurodance
TTITLE0=Blümchen - Herz an Herz
TTITLE1=Captain Hollywood Project - Impossible (Radio Edit)
TTITLE2=Cappella - Move on Baby
TTITLE3=Culture Beat - Mr.Vain
TTITLE4=Dj Bobo - Everybody
TTITLE5=C-Block - Time is tickin' away (Radio Edit)
TTITLE6=Centory - Point of no Return
TTITLE7=Captain Jack - Soldier Soldier
TTITLE8=MC Sar and The Real McCoy - Another Night (Dance Mix)
TTITLE9=Culture Beat - Anything
TTITLE10=Construction - My Heart is always
TTITLE11=DJ Pierro - Another World (Radio Edit)
TTITLE12=Brooklyn Bounce - The Theme (of Progressive Attack)
TTITLE13=DJ Quicksilver - Bellissima (Radio Mix)
TTITLE14=Double Vision - Knockin'
TTITLE15=Hugo feat. Judith - Show me the Way
TTITLE16=Justine Earp - Ganja Feeling
TTITLE17=No Doubt - Don't speak
TTITLE18=Backstreet Boys - We've got it goin on
EXTD=
EXTT0=
EXTT1=
EXTT2=
EXTT3=
EXTT4=
EXTT5=
EXTT6=
EXTT7=
EXTT8=
EXTT9=
EXTT10=
EXTT11=
EXTT12=
EXTT13=
EXTT14=
EXTT15=
EXTT16=
EXTT17=
EXTT18=
PLAYORDER=
